<svg width="101" height="32" viewBox="0 0 101 32" fill="none" xmlns="http://www.w3.org/2000/svg">
<path d="M1.708 26.5V11.268H5.152V14.796L4.76 14.208C5.04 13.1067 5.6 12.2853 6.44 11.744C7.28 11.2027 8.26933 10.932 9.408 10.932C10.6587 10.932 11.76 11.2587 12.712 11.912C13.664 12.5653 14.28 13.424 14.56 14.488L13.524 14.572C13.9907 13.3587 14.6907 12.4533 15.624 11.856C16.5573 11.24 17.6307 10.932 18.844 10.932C19.9267 10.932 20.888 11.1747 21.728 11.66C22.5867 12.1453 23.2587 12.8267 23.744 13.704C24.2293 14.5627 24.472 15.5613 24.472 16.7V26.5H20.804V17.568C20.804 16.896 20.6827 16.3173 20.44 15.832C20.1973 15.3467 19.8613 14.9733 19.432 14.712C19.0027 14.432 18.48 14.292 17.864 14.292C17.2853 14.292 16.772 14.432 16.324 14.712C15.876 14.9733 15.5307 15.3467 15.288 15.832C15.0453 16.3173 14.924 16.896 14.924 17.568V26.5H11.256V17.568C11.256 16.896 11.1347 16.3173 10.892 15.832C10.6493 15.3467 10.304 14.9733 9.856 14.712C9.42667 14.432 8.91333 14.292 8.316 14.292C7.73733 14.292 7.224 14.432 6.776 14.712C6.328 14.9733 5.98267 15.3467 5.74 15.832C5.49733 16.3173 5.376 16.896 5.376 17.568V26.5H1.708ZM33.9032 26.836C32.4099 26.836 31.0472 26.4907 29.8152 25.8C28.6019 25.1093 27.6312 24.1667 26.9032 22.972C26.1939 21.7773 25.8392 20.4147 25.8392 18.884C25.8392 17.3533 26.1939 15.9907 26.9032 14.796C27.6312 13.6013 28.6019 12.6587 29.8152 11.968C31.0285 11.2773 32.3912 10.932 33.9032 10.932C35.3965 10.932 36.7499 11.2773 37.9632 11.968C39.1765 12.6587 40.1379 13.6013 40.8472 14.796C41.5752 15.972 41.9392 17.3347 41.9392 18.884C41.9392 20.4147 41.5752 21.7773 40.8472 22.972C40.1192 24.1667 39.1485 25.1093 37.9352 25.8C36.7219 26.4907 35.3779 26.836 33.9032 26.836ZM33.9032 23.476C34.7245 23.476 35.4432 23.28 36.0592 22.888C36.6939 22.496 37.1885 21.9547 37.5432 21.264C37.9165 20.5547 38.1032 19.7613 38.1032 18.884C38.1032 17.988 37.9165 17.204 37.5432 16.532C37.1885 15.8413 36.6939 15.3 36.0592 14.908C35.4432 14.4973 34.7245 14.292 33.9032 14.292C33.0632 14.292 32.3259 14.4973 31.6912 14.908C31.0565 15.3 30.5525 15.8413 30.1792 16.532C29.8245 17.204 29.6472 17.988 29.6472 18.884C29.6472 19.7613 29.8245 20.5547 30.1792 21.264C30.5525 21.9547 31.0565 22.496 31.6912 22.888C32.3259 23.28 33.0632 23.476 33.9032 23.476ZM47.9194 26.5L41.9274 11.268H45.9314L50.2714 23.252H48.7874L53.1554 11.268H57.1594L51.1674 26.5H47.9194ZM65.0173 26.836C63.4493 26.836 62.0773 26.4813 60.9013 25.772C59.7253 25.0627 58.8106 24.1013 58.1573 22.888C57.504 21.6747 57.1773 20.3307 57.1773 18.856C57.1773 17.3253 57.504 15.972 58.1573 14.796C58.8293 13.6013 59.7346 12.6587 60.8733 11.968C62.0306 11.2773 63.3186 10.932 64.7373 10.932C65.932 10.932 66.9773 11.128 67.8733 11.52C68.788 11.912 69.5626 12.4533 70.1973 13.144C70.832 13.8347 71.3173 14.628 71.6533 15.524C71.9893 16.4013 72.1573 17.3533 72.1573 18.38C72.1573 18.6413 72.1386 18.912 72.1013 19.192C72.0826 19.472 72.036 19.7147 71.9613 19.92H60.2013V17.12H69.8893L68.1533 18.436C68.3213 17.5773 68.2746 16.812 68.0133 16.14C67.7706 15.468 67.36 14.936 66.7813 14.544C66.2213 14.152 65.54 13.956 64.7373 13.956C63.972 13.956 63.2906 14.152 62.6933 14.544C62.096 14.9173 61.6386 15.4773 61.3213 16.224C61.0226 16.952 60.9106 17.8387 60.9853 18.884C60.9106 19.8173 61.032 20.648 61.3493 21.376C61.6853 22.0853 62.1706 22.636 62.8053 23.028C63.4586 23.42 64.2053 23.616 65.0453 23.616C65.8853 23.616 66.5946 23.4387 67.1733 23.084C67.7706 22.7293 68.2373 22.2533 68.5733 21.656L71.5413 23.112C71.2426 23.84 70.776 24.484 70.1413 25.044C69.5066 25.604 68.7506 26.0427 67.8733 26.36C67.0146 26.6773 66.0626 26.836 65.0173 26.836ZM75.5818 26.5V14.544H72.8938V11.268H75.5818V10.764C75.5818 9.60667 75.8152 8.62667 76.2818 7.824C76.7672 7.00267 77.4392 6.37733 78.2978 5.948C79.1565 5.51867 80.1738 5.304 81.3498 5.304C81.5738 5.304 81.8165 5.32267 82.0778 5.36C82.3578 5.37867 82.5912 5.40667 82.7778 5.444V8.608C82.5912 8.57067 82.4138 8.552 82.2458 8.552C82.0965 8.53333 81.9565 8.524 81.8258 8.524C81.0045 8.524 80.3698 8.71067 79.9218 9.084C79.4738 9.43867 79.2498 9.99867 79.2498 10.764V11.268H85.9138V14.544H79.2498V26.5H75.5818ZM84.5418 26.5V11.268H88.2378V26.5H84.5418ZM97.1145 26.668C95.3972 26.668 94.0625 26.2013 93.1105 25.268C92.1772 24.316 91.7105 22.9813 91.7105 21.264V14.544H89.0785V11.268H89.3585C90.1052 11.268 90.6838 11.072 91.0945 10.68C91.5052 10.288 91.7105 9.71867 91.7105 8.972V7.796H95.3785V11.268H98.8785V14.544H95.3785V21.068C95.3785 21.572 95.4625 22.0013 95.6305 22.356C95.8172 22.7107 96.0972 22.9813 96.4705 23.168C96.8625 23.3547 97.3572 23.448 97.9545 23.448C98.0852 23.448 98.2345 23.4387 98.4025 23.42C98.5892 23.4013 98.7665 23.3827 98.9345 23.364V26.5C98.6732 26.5373 98.3745 26.5747 98.0385 26.612C97.7025 26.6493 97.3945 26.668 97.1145 26.668Z" fill="#C1F17E"/>
</svg>
