<svg width="40" height="44" viewBox="0 0 40 44" fill="none" xmlns="http://www.w3.org/2000/svg">
<path d="M10.0977 19.6248V11.6248C10.0977 8.97259 11.1512 6.42905 13.0266 4.55369C14.902 2.67832 17.4455 1.62476 20.0977 1.62476C22.7498 1.62476 25.2934 2.67832 27.1687 4.55369C29.0441 6.42905 30.0977 8.97259 30.0977 11.6248V19.6248M6.09766 19.6248H34.0977C36.3068 19.6248 38.0977 21.4156 38.0977 23.6248V37.6248C38.0977 39.8339 36.3068 41.6248 34.0977 41.6248H6.09766C3.88852 41.6248 2.09766 39.8339 2.09766 37.6248V23.6248C2.09766 21.4156 3.88852 19.6248 6.09766 19.6248Z" stroke="#C1F17E" stroke-width="3" stroke-linecap="round" stroke-linejoin="round"/>
</svg>
