<svg width="14" height="13" viewBox="0 0 14 13" fill="none" xmlns="http://www.w3.org/2000/svg">
<path d="M6.55181 1.24181C6.73523 0.870227 7.2651 0.870227 7.44852 1.24181L8.94394 4.27138C9.01671 4.4188 9.1573 4.52103 9.31998 4.54481L12.6649 5.03372C13.0749 5.09364 13.2383 5.59756 12.9415 5.88664L10.5219 8.24333C10.404 8.3582 10.3501 8.52377 10.378 8.68603L10.9489 12.0148C11.0189 12.4233 10.5902 12.7348 10.2233 12.5419L7.23289 10.9692C7.0872 10.8926 6.91313 10.8926 6.76744 10.9692L3.77698 12.5419C3.41016 12.7348 2.98139 12.4233 3.05145 12.0148L3.62237 8.68603C3.6502 8.52377 3.59637 8.3582 3.47843 8.24333L1.05884 5.88664C0.762039 5.59756 0.92543 5.09364 1.33539 5.03372L4.68035 4.54481C4.84302 4.52103 4.98362 4.4188 5.05639 4.27137L6.55181 1.24181Z" fill="#C1F17E"/>
</svg>
